<?xml version="1.0" encoding="utf-8"?>
<!-- Generator: Adobe Illustrator 27.4.0, SVG Export Plug-In . SVG Version: 6.00 Build 0)  -->
<svg version="1.1" id="Layer_2_00000065063137580632271640000009419013090369024148_"
	 xmlns="http://www.w3.org/2000/svg" xmlns:xlink="http://www.w3.org/1999/xlink" x="0px" y="0px" viewBox="0 0 755.2 181.9"
	 style="enable-background:new 0 0 755.2 181.9;" xml:space="preserve">
<style type="text/css">
	.st0{fill:#FFFFFF;}
</style>
<symbol  id="_x2D_" viewBox="-79.9 -3.7 159.8 7.3">
	<rect x="-79.9" y="-3.7" class="st0" width="159.8" height="7.3"/>
</symbol>
<symbol  id="O" viewBox="-13.1 -13.1 26.3 26.3">
	<path class="st0" d="M0-13.1c-7.2,0-13.1,5.9-13.1,13.1S-7.2,13.1,0,13.1S13.1,7.2,13.1,0S7.2-13.1,0-13.1z M0,5.8
		c-3.2,0-5.8-2.6-5.8-5.8S-3.2-5.8,0-5.8S5.8-3.2,5.8,0S3.2,5.8,0,5.8z"/>
</symbol>
<path class="st0" d="M247.5,138.2c-3.7,0-6.7-0.6-9-1.9s-4.2-3.1-5.4-5.5c-1.3-2.4-2.2-5.3-2.7-8.6c-0.5-3.3-0.7-7-0.7-11v-8.6h10.9
	v9.1c0,6,0.4,10.4,1.3,13s2.8,3.9,5.7,3.9c2,0,3.5-0.5,4.4-1.4c0.9-0.9,1.6-2.4,1.9-4.5c0.3-2.1,0.4-4.8,0.4-8.1
	c0-3.9-0.7-7.3-2.1-10.2c-1.4-2.9-3.5-5.7-6.2-8.5l-6.1-6.1c-1.7-1.8-3.4-3.7-5-5.8c-1.6-2.1-2.9-4.4-4-7.1s-1.5-5.6-1.5-9
	c0-4.6,0.5-8.6,1.5-11.9c1-3.3,2.8-5.9,5.4-7.7c2.6-1.8,6.2-2.7,10.9-2.7c3.7,0,6.6,0.6,8.9,1.8c2.2,1.2,4,3,5.1,5.3
	s1.9,5.1,2.3,8.3c0.4,3.2,0.6,6.7,0.6,10.6V77h-10.7v-6.1c0-3.5-0.1-6.4-0.4-8.7c-0.3-2.3-0.9-4.1-1.8-5.2s-2.2-1.7-4-1.7
	c-1.7,0-3,0.4-4.1,1.2c-1,0.8-1.8,2-2.2,3.7c-0.5,1.7-0.7,3.8-0.7,6.4c0,2.3,0.3,4.2,0.8,5.7c0.6,1.5,1.4,2.9,2.5,4.3
	c1.1,1.3,2.5,2.8,4.2,4.6L254,88c3.3,3.5,6,7.3,8.1,11.5c2,4.2,3.1,9,3.1,14.5c0,5.1-0.5,9.5-1.5,13.1c-1,3.6-2.8,6.4-5.4,8.3
	C255.8,137.2,252.1,138.2,247.5,138.2L247.5,138.2z"/>
<path class="st0" d="M301.6,138.3c-4.5,0-8.1-0.9-10.8-2.6c-2.7-1.8-4.6-4.4-5.8-8.1c-1.2-3.6-1.8-8.1-1.8-13.6V46.7h11.3v67
	c0,3.1,0.1,5.8,0.4,8.1c0.2,2.2,0.9,4,1.9,5.2c1,1.2,2.6,1.8,4.9,1.8s3.9-0.6,4.9-1.8c1-1.2,1.6-2.9,1.8-5.1s0.3-4.9,0.3-8V46.7
	h11.3v67.3c0,5.5-0.6,10-1.7,13.6c-1.2,3.6-3.1,6.3-5.7,8.1C309.8,137.4,306.2,138.3,301.6,138.3L301.6,138.3z"/>
<path class="st0" d="M342.1,137.2V46.7h18.7c3.6,0,6.5,0.6,8.8,1.8s4,2.9,5.3,5.1c1.2,2.2,2.1,5,2.5,8.1c0.5,3.2,0.7,6.8,0.7,10.8
	V74c0,6-0.5,11.1-1.4,15.2c-1,4.1-2.7,7.2-5.2,9.3c-2.5,2.1-6,3.1-10.6,3.1h-7.5v35.6L342.1,137.2L342.1,137.2z M353.4,92.3h6.1
	c2.1,0,3.7-0.6,4.7-1.7s1.8-3.1,2.1-5.7s0.6-6.3,0.6-10.8v-1.8c0-5.7-0.4-9.8-1.3-12.6c-0.9-2.7-2.8-4.1-5.9-4.1h-6.3V92.3
	L353.4,92.3z"/>
<path class="st0" d="M397,137.2V46.7h27.7v9.5h-16.5v30h15.6v9.4h-15.6v32.1H425v9.5H397L397,137.2z"/>
<path class="st0" d="M444.7,137.2V46.7h19.8c4.8,0,8.3,0.9,10.6,2.6c2.3,1.7,3.8,4.3,4.5,7.8c0.7,3.4,1,7.8,1,12.9
	c0,5.5-0.5,9.9-1.7,13.1c-1.1,3.2-3.3,5.3-6.6,6.3c1.6,0.3,3,1,4,2.1c1.1,1.1,1.9,2.8,2.5,5.1c0.6,2.3,1.1,5.4,1.3,9.2
	s0.4,8.6,0.4,14.4v2.6c0,1.2,0,2.5,0,4c0,1.5,0.1,2.9,0.1,4.4c0,1.4,0.1,2.7,0.2,3.8c0.1,1.1,0.2,1.8,0.4,2.2h-11.2
	c-0.1-0.3-0.3-1-0.4-2.2c-0.1-1.2-0.2-2.7-0.2-4.6c0-1.9-0.1-4.1-0.1-6.6c0-2.5,0-5.3,0-8.2v-9.3c0-3.3-0.2-5.8-0.5-7.5
	c-0.3-1.7-1-2.9-2.1-3.6s-2.8-1.1-5.1-1.2l-5.9-0.4v43.5L444.7,137.2L444.7,137.2z M456,85.3h6.5c1.9,0,3.4-0.4,4.4-1.1
	c1-0.8,1.7-2.2,2.1-4.5s0.6-5.6,0.6-10.1v-0.6c0-3.7-0.2-6.5-0.5-8.4c-0.4-1.9-1-3.2-2.1-3.9c-1-0.7-2.6-1-4.6-1H456L456,85.3
	L456,85.3z"/>
<path class="st0" d="M502,137.2V46.7h17c4.6,0,8.2,0.7,10.7,2.1c2.6,1.4,4.4,3.6,5.5,6.5c1.1,3,1.6,6.9,1.6,11.8v2.2
	c0,5-0.5,9-1.5,12.2s-2.8,5.4-5.6,6.8c2.2,0.8,3.9,2.3,5.2,4.4c1.2,2.1,2.1,4.6,2.7,7.6c0.5,3,0.8,6.2,0.8,9.6v2
	c0,5.9-0.7,10.8-1.8,14.5c-1.2,3.7-3.1,6.5-5.7,8.3c-2.6,1.8-6.2,2.6-10.7,2.6L502,137.2L502,137.2z M513.2,84.2h5.8
	c1.4,0,2.5-0.2,3.4-0.5c0.9-0.3,1.5-1,2-1.9c0.5-0.9,0.8-2.4,1-4.2c0.2-1.9,0.3-4.3,0.3-7.4V67c0-3.2-0.3-5.6-0.8-7.2
	c-0.5-1.6-1.3-2.7-2.4-3.2c-1.1-0.5-2.5-0.8-4.2-0.8h-5.1V84.2L513.2,84.2z M513.2,128.1h6.2c2,0,3.5-0.5,4.6-1.4s1.9-2.6,2.3-5
	c0.5-2.4,0.7-5.6,0.7-9.8v-4c0-5.3-0.4-9.1-1.3-11.5c-0.9-2.4-2.8-3.6-5.6-3.6h-6.8L513.2,128.1L513.2,128.1z"/>
<path class="st0" d="M558.3,137.2V46.7h11.3v81.1h16.9v9.4H558.3z"/>
<path class="st0" d="M619.4,138.2c-4.6,0-8.2-1-10.9-3c-2.7-2-4.6-5-5.8-9c-1.2-4-1.8-9-1.8-14.9V71.1c0-5.2,0.5-9.7,1.7-13.5
	c1.1-3.8,3-6.8,5.7-8.9c2.7-2.1,6.5-3.2,11.3-3.2c3.6,0,6.6,0.6,9,1.8c2.3,1.2,4.2,2.9,5.5,5.1c1.3,2.2,2.2,4.9,2.8,8.1
	c0.5,3.1,0.8,6.7,0.8,10.6v40.2c0,6-0.6,10.9-1.7,14.9c-1.1,4-3,7-5.7,9C627.6,137.2,624,138.2,619.4,138.2L619.4,138.2z
	 M619.4,128.5c1.9,0,3.3-0.6,4.3-1.7c1-1.1,1.7-2.9,2-5.4c0.4-2.5,0.5-5.8,0.5-10V70.5c0-5.1-0.4-8.9-1.2-11.4
	c-0.8-2.5-2.6-3.8-5.5-3.8s-4.8,1.2-5.8,3.7c-1,2.5-1.5,6.3-1.5,11.4v41c0,4.2,0.2,7.6,0.5,10.1c0.4,2.5,1,4.3,2.1,5.4
	C615.9,128,617.4,128.5,619.4,128.5L619.4,128.5z"/>
<path class="st0" d="M676.7,138.3c-4.4,0-7.9-1.1-10.6-3.2c-2.7-2.1-4.6-5.2-5.8-9.3c-1.2-4.1-1.8-9.1-1.8-14.9v-38
	c0-4,0.3-7.7,0.8-11c0.5-3.3,1.5-6.2,2.9-8.6c1.4-2.4,3.2-4.3,5.7-5.6s5.5-2,9.2-2c3.5,0,6.4,0.6,8.6,1.8s4,3,5.3,5.2
	c1.3,2.2,2.2,5,2.7,8.1c0.5,3.1,0.8,6.6,0.8,10.4v10.5h-11V71.4c0-5.4-0.4-9.4-1.2-12.1c-0.8-2.7-2.5-4-5.2-4
	c-2.9,0-4.8,1.4-5.8,4.1c-1,2.8-1.5,6.7-1.5,11.9v39.8c0,4.1,0.2,7.5,0.6,10.1c0.4,2.6,1.1,4.4,2.1,5.6c1,1.2,2.4,1.8,4.3,1.8
	c2.7,0,4.5-1.4,5.4-4.1c0.9-2.7,1.3-7.2,1.3-13.4v-10.6h11.2V111c0,6-0.5,11-1.6,15c-1.1,4.1-3,7.1-5.6,9.2
	C684.8,137.3,681.2,138.3,676.7,138.3L676.7,138.3z"/>
<path class="st0" d="M715.8,137.2V46.7H727v42.8l15.6-42.8h11.4l-16.5,44.7l17.6,45.8h-11.8l-16.3-43.1v43.1H715.8L715.8,137.2z"/>
<use xlink:href="#O"  width="26.3" height="26.3" x="-13.1" y="-13.1" transform="matrix(0.8206 0 0 -0.8206 62.4059 100.2819)" style="overflow:visible;"/>
<use xlink:href="#O"  width="26.3" height="26.3" x="-13.1" y="-13.1" transform="matrix(0.8206 0 0 -0.8206 19.875 57.1922)" style="overflow:visible;"/>
<use xlink:href="#O"  width="26.3" height="26.3" x="-13.1" y="-13.1" transform="matrix(0.8206 0 0 -0.8206 29.2639 133.4172)" style="overflow:visible;"/>
<use xlink:href="#O"  width="26.3" height="26.3" x="-13.1" y="-13.1" transform="matrix(0.8206 0 0 -0.8206 66.0319 170.1852)" style="overflow:visible;"/>
<use xlink:href="#_x2D_"  width="159.8" height="7.3" x="-79.9" y="-3.7" transform="matrix(0.5803 -0.5803 -0.5803 -0.5803 48.8211 64.5202)" style="overflow:visible;"/>
<use xlink:href="#_x2D_"  width="159.8" height="7.3" x="-79.9" y="-3.7" transform="matrix(0.1636 -0.1636 -0.5803 -0.5803 81.782 80.9094)" style="overflow:visible;"/>
<use xlink:href="#_x2D_"  width="159.8" height="7.3" x="-79.9" y="-3.7" transform="matrix(0.1646 0.1646 0.5803 -0.5803 81.8623 119.18)" style="overflow:visible;"/>
<use xlink:href="#_x2D_"  width="159.8" height="7.3" x="-79.9" y="-3.7" transform="matrix(0.1002 0.1002 0.5803 -0.5803 14.7282 118.882)" style="overflow:visible;"/>
<use xlink:href="#O"  width="26.3" height="26.3" x="-13.1" y="-13.1" transform="matrix(-0.8206 0 0 -0.8206 101.7173 60.6712)" style="overflow:visible;"/>
<use xlink:href="#O"  width="26.3" height="26.3" x="-13.1" y="-13.1" transform="matrix(-0.8206 0 0 -0.8206 101.7173 139.2753)" style="overflow:visible;"/>
<use xlink:href="#_x2D_"  width="159.8" height="7.3" x="-79.9" y="-3.7" transform="matrix(0.1438 -0.1438 -0.5803 -0.5803 46.0684 116.623)" style="overflow:visible;"/>
<use xlink:href="#_x2D_"  width="159.8" height="7.3" x="-79.9" y="-3.7" transform="matrix(0.1835 0.1835 0.5803 -0.5803 41.8436 79.1613)" style="overflow:visible;"/>
<use xlink:href="#_x2D_"  width="159.8" height="7.3" x="-79.9" y="-3.7" transform="matrix(0.1693 0.1693 0.5803 -0.5803 48.2736 152.4273)" style="overflow:visible;"/>
<use xlink:href="#O"  width="26.3" height="26.3" x="-13.1" y="-13.1" transform="matrix(-0.8206 0 0 -0.8206 140.9907 100.2819)" style="overflow:visible;"/>
<use xlink:href="#O"  width="26.3" height="26.3" x="-13.1" y="-13.1" transform="matrix(-0.8206 0 0 -0.8206 183.5217 57.1922)" style="overflow:visible;"/>
<use xlink:href="#O"  width="26.3" height="26.3" x="-13.1" y="-13.1" transform="matrix(-0.8206 0 0 -0.8206 174.1327 133.4172)" style="overflow:visible;"/>
<use xlink:href="#O"  width="26.3" height="26.3" x="-13.1" y="-13.1" transform="matrix(-0.8206 0 0 -0.8206 137.3647 170.1852)" style="overflow:visible;"/>
<use xlink:href="#_x2D_"  width="159.8" height="7.3" x="-79.9" y="-3.7" transform="matrix(-0.5803 -0.5803 0.5803 -0.5803 154.5755 64.5202)" style="overflow:visible;"/>
<use xlink:href="#_x2D_"  width="159.8" height="7.3" x="-79.9" y="-3.7" transform="matrix(-0.1636 -0.1636 0.5803 -0.5803 121.6147 80.9094)" style="overflow:visible;"/>
<use xlink:href="#_x2D_"  width="159.8" height="7.3" x="-79.9" y="-3.7" transform="matrix(-0.1646 0.1646 -0.5803 -0.5803 121.5343 119.18)" style="overflow:visible;"/>
<use xlink:href="#_x2D_"  width="159.8" height="7.3" x="-79.9" y="-3.7" transform="matrix(-0.1002 0.1002 -0.5803 -0.5803 188.6684 118.882)" style="overflow:visible;"/>
<use xlink:href="#_x2D_"  width="159.8" height="7.3" x="-79.9" y="-3.7" transform="matrix(-0.1438 -0.1438 0.5803 -0.5803 157.3282 116.623)" style="overflow:visible;"/>
<use xlink:href="#_x2D_"  width="159.8" height="7.3" x="-79.9" y="-3.7" transform="matrix(-0.1835 0.1835 -0.5803 -0.5803 161.5531 79.1613)" style="overflow:visible;"/>
<use xlink:href="#_x2D_"  width="159.8" height="7.3" x="-79.9" y="-3.7" transform="matrix(-0.1693 0.1693 -0.5803 -0.5803 155.123 152.4273)" style="overflow:visible;"/>
<use xlink:href="#O"  width="26.3" height="26.3" x="-13.1" y="-13.1" transform="matrix(-0.8206 0 0 -0.8206 101.7173 10.9989)" style="overflow:visible;"/>
</svg>
