<?xml version="1.0" encoding="UTF-8"?>
<svg id="Layer_2" data-name="Layer 2" xmlns="http://www.w3.org/2000/svg" viewBox="0 0 799.22 221.14">
  <defs>
    <style>
      .cls-1 {
        fill: #597dfc;
      }

      .cls-2 {
        fill: #7935b5;
      }
    </style>
  </defs>
  <g id="Layer_1-2" data-name="Layer 1">
    <g>
      <g>
        <path class="cls-1" d="m291.43,177.49c-3.67,0-6.68-.65-9.03-1.93-2.35-1.28-4.16-3.12-5.44-5.53-1.28-2.4-2.18-5.25-2.68-8.56-.49-3.31-.74-6.98-.74-11.03v-8.64h10.9v9.15c0,6.03.44,10.35,1.34,12.96s2.8,3.91,5.71,3.91c1.99,0,3.45-.47,4.4-1.4.94-.92,1.56-2.42,1.85-4.49.29-2.08.43-4.8.43-8.15,0-3.91-.71-7.32-2.14-10.21-1.42-2.9-3.5-5.72-6.24-8.46l-6.07-6.13c-1.74-1.78-3.42-3.72-5.04-5.81-1.61-2.08-2.93-4.45-3.96-7.09-1.03-2.64-1.55-5.64-1.55-9,0-4.63.5-8.59,1.5-11.9,1-3.31,2.78-5.86,5.37-7.66,2.59-1.8,6.24-2.71,10.93-2.71,3.67,0,6.62.62,8.86,1.85,2.25,1.23,3.95,3.01,5.1,5.32,1.15,2.31,1.91,5.07,2.31,8.26.39,3.18.59,6.73.59,10.64v5.39h-10.69v-6.12c0-3.5-.14-6.4-.43-8.71-.3-2.31-.88-4.06-1.75-5.22s-2.2-1.74-3.98-1.74c-1.68,0-3.04.39-4.07,1.18-1.03.78-1.77,2.01-2.24,3.68-.46,1.66-.69,3.79-.69,6.4,0,2.3.28,4.21.84,5.73.57,1.53,1.42,2.95,2.55,4.27,1.13,1.32,2.54,2.85,4.21,4.6l6.43,6.89c3.33,3.46,6.01,7.29,8.07,11.49,2.05,4.19,3.08,9.02,3.08,14.47,0,5.1-.5,9.47-1.51,13.08-1.01,3.62-2.79,6.39-5.35,8.3-2.55,1.92-6.18,2.88-10.87,2.88Z"/>
        <path class="cls-1" d="m345.61,177.55c-4.49,0-8.08-.88-10.77-2.65-2.69-1.77-4.63-4.45-5.81-8.05-1.18-3.6-1.77-8.14-1.77-13.63v-67.26h11.26v67c0,3.12.12,5.8.37,8.05.24,2.25.85,3.96,1.85,5.16,1,1.2,2.62,1.8,4.88,1.8s3.89-.6,4.87-1.8c.97-1.2,1.57-2.91,1.8-5.14s.33-4.9.33-8.02v-67.05h11.26v67.26c0,5.49-.58,10.03-1.74,13.63-1.17,3.6-3.08,6.28-5.73,8.05-2.66,1.76-6.25,2.65-10.78,2.65Z"/>
        <path class="cls-1" d="m386.07,176.47v-90.5h18.72c3.6,0,6.54.6,8.82,1.78,2.28,1.18,4.03,2.89,5.27,5.14,1.23,2.25,2.08,4.96,2.55,8.12.46,3.17.69,6.76.69,10.77v1.5c0,6.03-.48,11.1-1.44,15.22-.96,4.11-2.68,7.21-5.16,9.28-2.49,2.08-6.03,3.11-10.63,3.11h-7.55v35.59h-11.26Zm11.26-44.94h6.12c2.09,0,3.66-.57,4.7-1.72s1.76-3.06,2.14-5.73.57-6.27.57-10.8v-1.75c0-5.66-.44-9.84-1.32-12.57-.87-2.72-2.83-4.08-5.89-4.08h-6.32v36.66Z"/>
        <path class="cls-1" d="m440.98,176.47v-90.5h27.72v9.46h-16.45v30.03h15.58v9.41h-15.58v32.14h16.71v9.46h-27.97Z"/>
        <path class="cls-1" d="m488.69,176.47v-90.5h19.75c4.76,0,8.3.87,10.62,2.6,2.31,1.73,3.83,4.31,4.53,7.76.71,3.45,1.05,7.76,1.05,12.93,0,5.52-.55,9.9-1.67,13.14-1.11,3.23-3.3,5.33-6.56,6.3,1.61.27,2.96.97,4.04,2.08,1.07,1.11,1.92,2.82,2.54,5.11.61,2.3,1.06,5.36,1.34,9.18s.41,8.61.41,14.37v2.58c0,1.2.02,2.54.05,4.01.03,1.47.07,2.94.1,4.4.03,1.45.1,2.72.21,3.8.1,1.08.22,1.83.36,2.24h-11.21c-.14-.27-.26-1-.36-2.19-.1-1.18-.18-2.71-.23-4.6-.05-1.88-.09-4.08-.13-6.6-.03-2.53-.05-5.26-.05-8.21v-9.31c0-3.28-.16-5.78-.47-7.5-.31-1.71-1-2.9-2.08-3.57s-2.76-1.05-5.06-1.16l-5.91-.36v43.5h-11.26Zm11.26-51.94h6.53c1.91,0,3.37-.37,4.36-1.13,1-.75,1.68-2.25,2.06-4.52s.57-5.62.57-10.08v-.62c0-3.7-.19-6.51-.54-8.43-.36-1.91-1.05-3.22-2.06-3.88-1.01-.67-2.56-1-4.65-1h-6.27v29.66Z"/>
        <path class="cls-2" d="m545.96,176.47v-90.5h17.02c4.59,0,8.18.69,10.74,2.06,2.57,1.37,4.4,3.55,5.48,6.53,1.08,2.98,1.62,6.91,1.62,11.77v2.16c0,4.97-.49,9.02-1.49,12.16-1,3.14-2.85,5.39-5.56,6.76,2.19.83,3.91,2.29,5.17,4.4,1.25,2.1,2.13,4.65,2.65,7.63.51,2.99.77,6.19.77,9.61v2.01c-.04,5.93-.65,10.76-1.83,14.5-1.18,3.73-3.1,6.48-5.73,8.25-2.64,1.76-6.2,2.65-10.69,2.65h-18.15Zm11.26-52.96h5.81c1.4,0,2.54-.17,3.39-.49.86-.32,1.52-.97,2.01-1.93.48-.95.8-2.37.97-4.24.18-1.87.26-4.35.26-7.44v-3.13c0-3.22-.26-5.63-.75-7.22-.49-1.6-1.28-2.65-2.36-3.16-1.08-.52-2.48-.77-4.19-.77h-5.14v28.39Zm0,43.91h6.22c1.96,0,3.48-.47,4.58-1.41s1.87-2.59,2.31-4.96c.45-2.36.67-5.64.67-9.83v-4.01c0-5.32-.44-9.15-1.31-11.52-.88-2.36-2.76-3.55-5.63-3.55h-6.84v35.27Z"/>
        <path class="cls-2" d="m602.26,176.47v-90.5h11.26v81.09h16.86v9.41h-28.12Z"/>
        <path class="cls-2" d="m663.38,177.49c-4.56,0-8.18-1-10.87-2.99-2.7-1.98-4.63-4.98-5.81-8.97-1.18-4-1.78-8.98-1.78-14.94v-40.21c0-5.21.55-9.72,1.65-13.52,1.1-3.81,2.99-6.76,5.71-8.87,2.71-2.11,6.47-3.16,11.31-3.16,3.63,0,6.63.6,8.98,1.8,2.35,1.2,4.18,2.91,5.48,5.14,1.3,2.23,2.22,4.92,2.75,8.05.54,3.14.8,6.66.8,10.57v40.21c0,5.96-.57,10.94-1.7,14.94-1.13,3.99-3.02,6.98-5.68,8.97-2.65,1.99-6.26,2.99-10.82,2.99Zm0-9.72c1.89,0,3.33-.55,4.32-1.65,1-1.1,1.67-2.89,2.03-5.4.36-2.5.54-5.84.54-10.02v-40.93c0-5.11-.41-8.92-1.23-11.44-.83-2.52-2.64-3.78-5.45-3.78s-4.82,1.24-5.84,3.73c-1.01,2.48-1.51,6.3-1.51,11.44v40.98c0,4.22.18,7.56.54,10.06.36,2.48,1.05,4.27,2.08,5.37,1.03,1.1,2.54,1.65,4.53,1.65Z"/>
        <path class="cls-2" d="m720.66,177.55c-4.39,0-7.92-1.06-10.59-3.19-2.67-2.13-4.61-5.23-5.81-9.33-1.2-4.09-1.8-9.06-1.8-14.89v-38.04c0-4.02.28-7.67.83-10.98.54-3.31,1.51-6.17,2.88-8.58,1.37-2.42,3.25-4.28,5.65-5.58s5.47-1.96,9.2-1.96c3.5,0,6.38.61,8.64,1.83,2.26,1.22,4.04,2.96,5.34,5.22,1.3,2.25,2.21,4.96,2.73,8.09.51,3.14.77,6.61.77,10.41v10.54h-11.05v-10.38c0-5.39-.4-9.41-1.18-12.06-.79-2.65-2.54-3.98-5.25-3.98-2.88,0-4.81,1.37-5.78,4.11-.98,2.75-1.46,6.7-1.46,11.88v39.81c0,4.14.19,7.5.57,10.07.37,2.58,1.06,4.45,2.08,5.63,1.01,1.18,2.44,1.78,4.3,1.78,2.74,0,4.55-1.37,5.43-4.12.87-2.74,1.31-7.21,1.31-13.42v-10.65h11.15v10.55c0,5.96-.54,10.97-1.64,15.01-1.1,4.05-2.96,7.1-5.58,9.15-2.62,2.06-6.19,3.09-10.72,3.09Z"/>
        <path class="cls-2" d="m759.73,176.47v-90.5h11.26v42.83l15.63-42.83h11.42l-16.45,44.69,17.64,45.81h-11.82l-16.3-43.09v43.09h-11.37Z"/>
      </g>
      <g>
        <path class="cls-2" d="m124.3,26.25c-7.24,0-13.13-5.89-13.13-13.13S117.07,0,124.3,0s13.12,5.89,13.12,13.13-5.89,13.13-13.12,13.13Zm0-18.96c-3.22,0-5.83,2.62-5.83,5.83s2.62,5.83,5.83,5.83,5.83-2.62,5.83-5.83-2.62-5.83-5.83-5.83Z"/>
        <path class="cls-2" d="m124.3,182.38c-7.24,0-13.13-5.89-13.13-13.13s5.89-13.13,13.13-13.13,13.12,5.89,13.12,13.13-5.89,13.13-13.12,13.13Zm0-18.96c-3.22,0-5.83,2.62-5.83,5.83s2.62,5.83,5.83,5.83,5.83-2.62,5.83-5.83-2.62-5.83-5.83-5.83Z"/>
        <path class="cls-2" d="m168.44,221.14c-7.24,0-13.13-5.89-13.13-13.13s5.89-13.13,13.13-13.13,13.13,5.89,13.13,13.13-5.89,13.13-13.13,13.13Zm0-18.96c-3.22,0-5.83,2.62-5.83,5.83s2.61,5.83,5.83,5.83,5.83-2.62,5.83-5.83-2.61-5.83-5.83-5.83Z"/>
        <path class="cls-2" d="m79.16,221.14c-7.24,0-13.12-5.89-13.12-13.13s5.89-13.13,13.12-13.13,13.13,5.89,13.13,13.13-5.89,13.13-13.13,13.13Zm0-18.96c-3.21,0-5.83,2.62-5.83,5.83s2.62,5.83,5.83,5.83,5.83-2.62,5.83-5.83-2.62-5.83-5.83-5.83Z"/>
        <path class="cls-2" d="m124.3,86.49c-7.24,0-13.13-5.89-13.13-13.13s5.89-13.12,13.13-13.12,13.12,5.89,13.12,13.12-5.89,13.13-13.12,13.13Zm0-18.96c-3.22,0-5.83,2.62-5.83,5.83s2.62,5.83,5.83,5.83,5.83-2.62,5.83-5.83-2.62-5.83-5.83-5.83Z"/>
        <path class="cls-2" d="m76.28,134.4c-7.24,0-13.13-5.89-13.13-13.12s5.89-13.13,13.13-13.13,13.12,5.89,13.12,13.13-5.89,13.12-13.12,13.12Zm0-18.96c-3.22,0-5.83,2.62-5.83,5.83s2.62,5.83,5.83,5.83,5.83-2.62,5.83-5.83-2.62-5.83-5.83-5.83Z"/>
        <path class="cls-2" d="m36.94,175.02c-7.24,0-13.12-5.89-13.12-13.12s5.89-13.13,13.12-13.13,13.13,5.89,13.13,13.13-5.89,13.12-13.13,13.12Zm0-18.96c-3.21,0-5.83,2.62-5.83,5.83s2.62,5.83,5.83,5.83,5.83-2.62,5.83-5.83-2.62-5.83-5.83-5.83Z"/>
        <path class="cls-2" d="m171.46,134.4c-7.24,0-13.13-5.89-13.13-13.12s5.89-13.13,13.13-13.13,13.12,5.89,13.12,13.13-5.89,13.12-13.12,13.12Zm0-18.96c-3.22,0-5.83,2.62-5.83,5.83s2.61,5.83,5.83,5.83,5.83-2.62,5.83-5.83-2.61-5.83-5.83-5.83Z"/>
        <path class="cls-2" d="m211.67,175.02c-7.24,0-13.12-5.89-13.12-13.12s5.89-13.13,13.12-13.13,13.13,5.89,13.13,13.13-5.89,13.12-13.13,13.12Zm0-18.96c-3.21,0-5.83,2.62-5.83,5.83s2.61,5.83,5.83,5.83,5.83-2.62,5.83-5.83-2.61-5.83-5.83-5.83Z"/>
        <g>
          <path class="cls-2" d="m223.88,81.89c-7.24,0-13.13-5.89-13.13-13.12s5.89-13.13,13.13-13.13,13.13,5.89,13.13,13.13-5.89,13.12-13.13,13.12Zm0-18.96c-3.22,0-5.83,2.62-5.83,5.83s2.61,5.83,5.83,5.83,5.83-2.62,5.83-5.83-2.61-5.83-5.83-5.83Z"/>
          <g>
            <g>
              <path class="cls-2" d="m132.9,77.31c-1.2,2.6-3.53,4.55-6.37,5.24l35.93,35.93c.86-2.76,2.91-4.98,5.59-6.02l-35.15-35.15Z"/>
              <path class="cls-2" d="m202.76,158.79c.95-2.72,3.08-4.86,5.8-5.81l-28.28-28.28c-1.04,2.68-3.26,4.73-6.02,5.59l28.5,28.5Z"/>
              <path class="cls-2" d="m85.49,119.14l36.59-36.59c-2.84-.69-5.17-2.64-6.37-5.24l-35.41,35.41c2.59,1.22,4.53,3.56,5.19,6.42Z"/>
              <path class="cls-2" d="m127.9,21.89l69.61,69.61-21.51,21.51c1.95,1.08,3.49,2.79,4.29,4.9l21.82-21.82,36.18,36.18-21.61,21.61c2.14,1.34,3.72,3.5,4.26,6.06l27.67-27.67-41.34-41.34,13.31-13.31c-2.11-.79-3.85-2.31-4.94-4.26l-12.97,12.97L133.06,16.73c-.96,2.34-2.82,4.2-5.16,5.16Z"/>
              <path class="cls-2" d="m45.85,158.78l28.29-28.29c-2.85-.66-5.2-2.6-6.42-5.19l-27.68,27.68c2.72.95,4.85,3.08,5.8,5.8Z"/>
              <path class="cls-2" d="m232.73,65.47l.06-.06-.12-.12c.02.06.03.12.06.18Z"/>
              <path class="cls-2" d="m163.19,125.82l-34.87,34.87c2.02.95,3.65,2.58,4.58,4.61l35.19-35.19c-2.11-.8-3.82-2.34-4.9-4.29Z"/>
              <path class="cls-2" d="m20.75,61.05l-.24-.24-4.6,4.6,1.12,1.12c.55-2.25,1.89-4.18,3.72-5.48Z"/>
              <path class="cls-2" d="m31.92,153.88l-21.61-21.61,36.23-36.23,21.19,21.19c.96-2.02,2.59-3.64,4.63-4.56l-21.22-21.22L120.7,21.89c-2.34-.96-4.2-2.82-5.16-5.16L45.99,86.28l-12.05-12.05c-1.3,1.83-3.23,3.17-5.48,3.72l12.93,12.93L0,132.27l27.67,27.67c.54-2.56,2.11-4.71,4.26-6.06Z"/>
              <path class="cls-2" d="m120.36,160.66l-35.47-35.47c-.93,2.03-2.55,3.67-4.56,4.63l35.42,35.42c.95-2.02,2.58-3.65,4.61-4.58Z"/>
              <path class="cls-2" d="m203.66,166.91l-32.17,32.17c2.41.82,4.38,2.57,5.47,4.84l32.76-32.76c-2.56-.54-4.71-2.11-6.06-4.26Z"/>
              <path class="cls-2" d="m76.89,198.84l-31.94-31.94c-1.34,2.14-3.5,3.72-6.06,4.26l32.11,32.11c1.27-2.18,3.37-3.81,5.89-4.43Z"/>
            </g>
            <path class="cls-2" d="m26.21,81.89c-7.24,0-13.12-5.89-13.12-13.12s5.89-13.13,13.12-13.13,13.13,5.89,13.13,13.13-5.89,13.12-13.13,13.12Zm0-18.96c-3.21,0-5.83,2.62-5.83,5.83s2.62,5.83,5.83,5.83,5.83-2.62,5.83-5.83-2.62-5.83-5.83-5.83Z"/>
          </g>
        </g>
      </g>
    </g>
  </g>
</svg>